<?xml version="1.0" encoding="UTF-8"?>
<svg version="1.1" xmlns="http://www.w3.org/2000/svg" width="474" height="266">
<path d="M0 0 C156.42 0 312.84 0 474 0 C474 87.78 474 175.56 474 266 C317.58 266 161.16 266 0 266 C0 178.22 0 90.44 0 0 Z " fill="#FDFDFD" transform="translate(0,0)"/>
<path d="M0 0 C3.6793608 2.37378116 6.34238062 4.89507456 8 9 C8.24050903 11.11346436 8.24050903 11.11346436 8.22705078 13.40136719 C8.22689972 14.2619574 8.22674866 15.12254761 8.22659302 16.00921631 C8.21627045 16.92914368 8.20594788 17.84907104 8.1953125 18.796875 C8.1924826 19.74564514 8.18965271 20.69441528 8.18673706 21.67193604 C8.17555448 24.69808639 8.1504533 27.7239393 8.125 30.75 C8.11496772 32.80338114 8.1058423 34.85676692 8.09765625 36.91015625 C8.07562141 41.94021854 8.04110462 46.97005886 8 52 C3.05 52 -1.9 52 -7 52 C-7.33 50.68 -7.66 49.36 -8 48 C-8.556875 48.45375 -9.11375 48.9075 -9.6875 49.375 C-15.21758667 53.26100685 -20.38436931 53.67007192 -27 53 C-32.67458978 51.07278083 -36.32050871 47.35898258 -39 42 C-39.12207871 40.21140489 -39.17548448 38.41771619 -39.1875 36.625 C-39.20167969 35.66851562 -39.21585938 34.71203125 -39.23046875 33.7265625 C-38.99745572 30.96989983 -38.40920164 29.35052605 -37 27 C-36.34 27 -35.68 27 -35 27 C-34.67 26.01 -34.34 25.02 -34 24 C-26.01999177 17.95453922 -16.49737629 18.75989779 -7 19 C-7.39629124 14.35391142 -7.39629124 14.35391142 -9.0625 10.0625 C-12.24130929 8.319282 -15.46725713 8.44685654 -19 9 C-21.67431489 10.81163267 -21.95920359 11.87761077 -23 15 C-27.62 15 -32.24 15 -37 15 C-36.77920556 9.59053628 -35.60352975 6.52569243 -31.8515625 2.578125 C-22.96163186 -4.99894668 -10.21823202 -5.09899895 0 0 Z " fill="#0B0B0B" transform="translate(43,141)"/>
<path d="M0 0 C0.86044922 0.44279297 0.86044922 0.44279297 1.73828125 0.89453125 C2.79015625 1.41015625 3.84203125 1.92578125 4.92578125 2.45703125 C9.35174506 6.29286655 10.64531561 9.29277028 12.73828125 14.89453125 C12.73828125 19.84453125 12.73828125 24.79453125 12.73828125 29.89453125 C1.51828125 29.89453125 -9.70171875 29.89453125 -21.26171875 29.89453125 C-19.95014829 37.41569792 -19.95014829 37.41569792 -15.26171875 41.89453125 C-12.5415391 42.28072959 -9.98857087 42.16384998 -7.26171875 41.89453125 C-6.47796875 41.83265625 -5.69421875 41.77078125 -4.88671875 41.70703125 C-2.5714032 40.77428832 -2.5714032 40.77428832 -1.26171875 35.89453125 C3.35828125 35.89453125 7.97828125 35.89453125 12.73828125 35.89453125 C11.50575186 42.0571782 9.0018589 46.3840869 3.9609375 50.26171875 C-2.98410673 54.42570588 -10.76010464 54.8840955 -18.62890625 53.46875 C-25.54372797 51.51872242 -30.99271872 47.78059328 -34.6484375 41.51953125 C-38.12984617 33.31073608 -38.82856174 23.78485542 -36.53125 15.1484375 C-33.35974577 7.47210276 -28.62670254 2.29601407 -21.078125 -1.19140625 C-14.12729895 -3.44729154 -6.65441043 -3.01721715 0 0 Z " fill="#0A0A0A" transform="translate(456.26171875,140.10546875)"/>
<path d="M0 0 C4.79054731 3.975135 7.4927535 7.97101399 9 14 C9 18.62 9 23.24 9 28 C-2.55 28 -14.1 28 -26 28 C-23.46713681 37.54324986 -23.46713681 37.54324986 -20 39 C-20 39.66 -20 40.32 -20 41 C-16.57718157 40.9867075 -13.33014061 40.82604112 -10 40 C-8.86575418 38.45616541 -7.73179893 36.90935885 -6.69140625 35.30078125 C-2.62367451 32.17247948 4.13273863 33.64434085 9 34 C8.09603613 40.04394449 5.08642265 44.67187947 0.1875 48.3671875 C-6.8447986 52.51988107 -14.5592345 53.15256091 -22.5078125 51.46875 C-30.47597511 48.98376369 -35.1004674 45.62565384 -39.01953125 38.21875 C-42.25101248 30.90607534 -42.15711715 20.94214492 -40.3515625 13.23046875 C-37.65827671 6.65839102 -32.94606445 -0.04868442 -26.3125 -3 C-17.28533202 -5.67148298 -8.1517746 -4.61534297 0 0 Z " fill="#0B0B0B" transform="translate(212,142)"/>
<path d="M0 0 C4.71372937 2.63856166 6.99572627 6.2996788 8.6875 11.375 C8.77339303 12.77155459 8.80522715 14.17185777 8.80102539 15.57104492 C8.80094986 16.41168991 8.80087433 17.2523349 8.80079651 18.11845398 C8.79563522 19.02166885 8.79047394 19.92488373 8.78515625 20.85546875 C8.7837413 21.78345779 8.78232635 22.71144684 8.78086853 23.66755676 C8.77526937 26.63257058 8.76271704 29.59750899 8.75 32.5625 C8.74498489 34.57226453 8.740422 36.58203025 8.73632812 38.59179688 C8.72530021 43.51956032 8.70803617 48.44726737 8.6875 53.375 C3.7375 53.375 -1.2125 53.375 -6.3125 53.375 C-6.342229 51.72516113 -6.342229 51.72516113 -6.37255859 50.04199219 C-6.44869901 45.95663778 -6.53740336 41.87163562 -6.62988281 37.78662109 C-6.66813771 36.0194393 -6.7029967 34.25218056 -6.734375 32.48486328 C-6.78010152 29.94275437 -6.83808289 27.40117352 -6.8984375 24.859375 C-6.90998871 24.07069031 -6.92153992 23.28200562 -6.93344116 22.46942139 C-7.04546247 17.10366275 -7.04546247 17.10366275 -9.3125 12.375 C-12.40423752 10.82913124 -14.90679552 11.08140479 -18.3125 11.375 C-20.6738721 12.78268265 -20.6738721 12.78268265 -22.3125 15.375 C-22.73029971 18.39227626 -22.91729843 21.0588672 -22.921875 24.078125 C-22.93841125 24.91591492 -22.95494751 25.75370483 -22.97198486 26.61688232 C-23.02047499 29.28632937 -23.04183745 31.95520674 -23.0625 34.625 C-23.09065893 36.43752868 -23.12058625 38.2500308 -23.15234375 40.0625 C-23.22623394 44.49995309 -23.27580214 48.93708977 -23.3125 53.375 C-28.5925 53.375 -33.8725 53.375 -39.3125 53.375 C-39.3125 35.555 -39.3125 17.735 -39.3125 -0.625 C-34.3625 -0.625 -29.4125 -0.625 -24.3125 -0.625 C-24.3125 1.685 -24.3125 3.995 -24.3125 6.375 C-23.6525 6.375 -22.9925 6.375 -22.3125 6.375 C-22.126875 5.7975 -21.94125 5.22 -21.75 4.625 C-16.87828187 -3.00029794 -7.60628091 -3.36486033 0 0 Z " fill="#0F0F0F" transform="translate(269.3125,139.625)"/>
<path d="M0 0 C4.95 0 9.9 0 15 0 C15.01981934 1.13018555 15.03963867 2.26037109 15.06005859 3.42480469 C15.1361888 7.62196964 15.22489479 11.81879126 15.31738281 16.015625 C15.35564191 17.83131121 15.39050017 19.64707241 15.421875 21.46289062 C15.4675923 24.07449123 15.52557536 26.68557688 15.5859375 29.296875 C15.59748871 30.10743347 15.60903992 30.91799194 15.62094116 31.75311279 C15.72178156 35.61264724 15.81111026 38.72818586 18 42 C19.43739513 42.02712066 20.87493863 42.04645067 22.3125 42.0625 C23.11300781 42.07410156 23.91351563 42.08570313 24.73828125 42.09765625 C27.16861334 42.09657855 27.16861334 42.09657855 30 41 C31.47527012 37.0162535 31.22740276 32.71581736 31.31640625 28.515625 C31.33718735 27.70003113 31.35796844 26.88443726 31.37937927 26.04412842 C31.44461297 23.44616895 31.50363768 20.84811087 31.5625 18.25 C31.60571014 16.485667 31.64932522 14.72134387 31.69335938 12.95703125 C31.80026745 8.63812116 31.90160827 4.31911216 32 0 C36.95 0 41.9 0 47 0 C47 17.82 47 35.64 47 54 C42.05 54 37.1 54 32 54 C31.505 51.525 31.505 51.525 31 49 C29.9171875 49.928125 29.9171875 49.928125 28.8125 50.875 C23.18047344 55.13030895 17.94622185 55.8919707 11 55 C6.10527193 52.64327908 3.68384398 49.67187656 1 45 C0.08138216 42.24414648 -0.12204322 40.6403931 -0.11352539 37.80395508 C-0.11344986 36.96331009 -0.11337433 36.1226651 -0.11329651 35.25654602 C-0.10813522 34.35333115 -0.10297394 33.45011627 -0.09765625 32.51953125 C-0.0962413 31.59154221 -0.09482635 30.66355316 -0.09336853 29.70744324 C-0.08776937 26.74242942 -0.07521704 23.77749101 -0.0625 20.8125 C-0.05748489 18.80273547 -0.052922 16.79296975 -0.04882812 14.78320312 C-0.03780021 9.85543968 -0.02053617 4.92773263 0 0 Z " fill="#0F0F0F" transform="translate(325,139)"/>
<path d="M0 0 C4.46173941 2.75923358 7.18259429 6.05261778 9 11 C9 12.98 9 14.96 9 17 C4.38 17 -0.24 17 -5 17 C-5.99 15.02 -6.98 13.04 -8 11 C-11.19233485 9.40383257 -14.53461497 9.48533886 -18 10 C-20.43119623 11.87015094 -21.64069173 13.28138345 -23 16 C-23.15159403 18.76367582 -23.23141393 21.48532157 -23.25 24.25 C-23.270625 25.00152344 -23.29125 25.75304687 -23.3125 26.52734375 C-23.34683371 31.44564773 -22.64313915 34.70156158 -20 39 C-18.44049449 40.55950551 -16.91122869 40.28196698 -14.75 40.375 C-10.93524381 40.34462774 -10.18033551 40.13900862 -7 37.6875 C-4.86190943 35.10687116 -4.86190943 35.10687116 -4 32 C0.62 32 5.24 32 10 32 C8.89632571 38.62204574 7.318017 44.16460365 2.06640625 48.65234375 C-5.15032808 53.35890962 -12.97194078 54.15660323 -21.40234375 52.5390625 C-28.09973352 50.59281248 -32.83331605 47.03335754 -36.875 41.375 C-40.70345514 33.29270581 -40.28131112 21.48039052 -38.28125 12.92578125 C-35.37479237 6.02294438 -30.31391563 1.843253 -24 -2 C-16.26868522 -4.57710493 -7.25891344 -3.60065151 0 0 Z " fill="#0A0A0A" transform="translate(99,141)"/>
<path d="M0 0 C4.89471375 2.56233337 8.50766457 4.73033178 10.74609375 9.9140625 C11.25501933 12.59340601 11.51511859 15.18855566 11.74609375 17.9140625 C7.12609375 17.9140625 2.50609375 17.9140625 -2.25390625 17.9140625 C-3.24390625 15.9340625 -4.23390625 13.9540625 -5.25390625 11.9140625 C-8.47320198 10.30441463 -11.77278337 10.30720008 -15.25390625 10.9140625 C-18.4734527 13.44859907 -19.9582306 15.02703555 -21.25390625 18.9140625 C-21.42632333 21.34768722 -21.52056393 23.78726846 -21.56640625 26.2265625 C-21.60378906 27.52207031 -21.64117187 28.81757813 -21.6796875 30.15234375 C-21.1613527 34.73176038 -19.51614296 37.65182579 -16.25390625 40.9140625 C-12.87533716 41.33789733 -9.625134 41.41616025 -6.25390625 40.9140625 C-3.91386705 38.29038219 -3.35767173 36.22535894 -2.25390625 32.9140625 C2.36609375 32.9140625 6.98609375 32.9140625 11.74609375 32.9140625 C11.28162149 39.64891027 10.1467742 43.93235705 4.84375 48.58203125 C-1.95856742 53.91494677 -7.64948448 54.73461663 -16.25390625 53.9140625 C-23.98454693 51.87910129 -30.33300744 48.35924702 -34.56640625 41.4140625 C-38.38346463 33.49720068 -38.61839517 23.43034812 -36.06640625 15.0390625 C-33.0030845 7.29566587 -28.68985435 2.67870568 -21.25390625 -1.0859375 C-14.46059892 -3.35037328 -6.53852449 -2.90903169 0 0 Z " fill="#080808" transform="translate(152.25390625,140.0859375)"/>
<path d="M0 0 C0 5.28 0 10.56 0 16 C3.3 16 6.6 16 10 16 C10 19.96 10 23.92 10 28 C6.37 28 2.74 28 -1 28 C-0.89035323 32.43801996 -0.75966846 36.87517436 -0.625 41.3125 C-0.5940625 42.57513672 -0.563125 43.83777344 -0.53125 45.13867188 C-0.49257813 46.34716797 -0.45390625 47.55566406 -0.4140625 48.80078125 C-0.36693115 50.47394409 -0.36693115 50.47394409 -0.31884766 52.1809082 C-0.194751 55.20368786 -0.194751 55.20368786 2 58 C3.96361864 58.57748803 3.96361864 58.57748803 6.125 58.6875 C7.40375 58.790625 8.6825 58.89375 10 59 C10 62.3 10 65.6 10 69 C4.47578815 71.76210592 0.20306507 71.41074095 -5.6875 70.3125 C-10.20817312 68.5212899 -12.91247163 66.14082062 -15.12451172 61.78637695 C-16.21340438 58.32080753 -16.22520384 55.36226682 -16.1953125 51.73046875 C-16.19106766 50.70896477 -16.19106766 50.70896477 -16.18673706 49.66682434 C-16.17560525 47.50686545 -16.15051457 45.34733206 -16.125 43.1875 C-16.11496111 41.71680289 -16.10583685 40.24609924 -16.09765625 38.77539062 C-16.07568913 35.18345714 -16.0412082 31.59177015 -16 28 C-17.98 28 -19.96 28 -22 28 C-22 24.04 -22 20.08 -22 16 C-20.02 16 -18.04 16 -16 16 C-16 12.7 -16 9.4 -16 6 C-15.15695312 5.65066406 -14.31390625 5.30132812 -13.4453125 4.94140625 C-12.34960938 4.48636719 -11.25390625 4.03132813 -10.125 3.5625 C-9.03445313 3.11003906 -7.94390625 2.65757813 -6.8203125 2.19140625 C-1.63278689 0 -1.63278689 0 0 0 Z " fill="#0D0D0D" transform="translate(306,123)"/>
<path d="M0 0 C3.4621318 0.69242636 5.97456554 1.27007135 9.125 2.56640625 C10.29434082 3.04207031 10.29434082 3.04207031 11.48730469 3.52734375 C12.73108887 4.03974609 12.73108887 4.03974609 14 4.5625 C21.5506509 7.63127407 29.12903543 10.61007894 36.75 13.5 C37.67296875 13.85006104 38.5959375 14.20012207 39.546875 14.56079102 C41.69739922 15.3752283 43.84861787 16.18783164 46 17 C46 20.96 46 24.92 46 29 C41.91489408 30.8050468 37.79914007 32.47396086 33.625 34.0625 C25.48030607 37.16706569 17.40133162 40.43495593 9.31884766 43.69750977 C8.25972168 44.12346436 7.2005957 44.54941895 6.109375 44.98828125 C4.67029785 45.56896362 4.67029785 45.56896362 3.20214844 46.16137695 C1 47 1 47 0 47 C0 42.38 0 37.76 0 33 C5.65534963 30.72097851 11.32024741 28.46756747 17 26.25 C18.093125 25.82203125 19.18625 25.3940625 20.3125 24.953125 C23 24 23 24 25 24 C25 23.34 25 22.68 25 22 C24.13246094 21.88527344 23.26492188 21.77054688 22.37109375 21.65234375 C18.97138259 20.99446222 16.22173263 19.96152943 13.0625 18.5625 C8.73738125 16.69887473 4.56476708 15.14119177 0 14 C0 9.38 0 4.76 0 0 Z " fill="#9F05F5" transform="translate(275,73)"/>
<path d="M0 0 C4.95 0 9.9 0 15 0 C15.33 2.97 15.66 5.94 16 9 C16.5259375 7.88625 16.5259375 7.88625 17.0625 6.75 C19.4643461 3.34092811 22.0512307 1.37248486 26 0 C27.98 0 29.96 0 32 0 C32 4.95 32 9.9 32 15 C30.618125 15.103125 29.23625 15.20625 27.8125 15.3125 C23.86623736 15.75924671 21.14491808 16.42688521 18 19 C15.61655847 22.58096527 15.68980993 25.9477295 15.5859375 30.171875 C15.56657135 30.8542926 15.5472052 31.53671021 15.5272522 32.23980713 C15.46768902 34.40974608 15.42116554 36.57973877 15.375 38.75 C15.33679869 40.22528297 15.2977457 41.70054415 15.2578125 43.17578125 C15.16040985 46.78373785 15.08066114 50.39147513 15 54 C10.05 54 5.1 54 0 54 C0 36.18 0 18.36 0 0 Z " fill="#0B0B0B" transform="translate(383,139)"/>
<path d="M0 0 C4.7890572 2.13144259 7.27834923 4.59579655 9.78515625 9.30859375 C10.70377409 12.06444727 10.90719947 13.66820065 10.89868164 16.50463867 C10.89860611 17.34528366 10.89853058 18.18592865 10.89845276 19.05204773 C10.89329147 19.9552626 10.88813019 20.85847748 10.8828125 21.7890625 C10.88139755 22.71705154 10.8799826 23.64504059 10.87852478 24.60115051 C10.87292562 27.56616433 10.86037329 30.53110274 10.84765625 33.49609375 C10.84264114 35.50585828 10.83807825 37.515624 10.83398438 39.52539062 C10.82295646 44.45315407 10.80569242 49.38086112 10.78515625 54.30859375 C5.83515625 54.30859375 0.88515625 54.30859375 -4.21484375 54.30859375 C-4.23466309 53.20870117 -4.25448242 52.10880859 -4.27490234 50.97558594 C-4.35104276 46.89023153 -4.43974711 42.80522937 -4.53222656 38.72021484 C-4.57048146 36.95303305 -4.60534045 35.18577431 -4.63671875 33.41845703 C-4.68244527 30.87634812 -4.74042664 28.33476727 -4.80078125 25.79296875 C-4.81233246 25.00428406 -4.82388367 24.21559937 -4.83578491 23.40301514 C-4.91191777 18.01585411 -4.91191777 18.01585411 -7.21484375 13.30859375 C-10.25683847 12.01627733 -10.25683847 12.01627733 -13.21484375 11.30859375 C-13.21484375 10.64859375 -13.21484375 9.98859375 -13.21484375 9.30859375 C-13.87484375 8.97859375 -14.53484375 8.64859375 -15.21484375 8.30859375 C-15.87484375 7.31859375 -16.53484375 6.32859375 -17.21484375 5.30859375 C-18.20484375 5.30859375 -19.19484375 5.30859375 -20.21484375 5.30859375 C-14.92357984 -0.86454748 -7.57161732 -2.36362657 0 0 Z " fill="#090909" transform="translate(267.21484375,138.69140625)"/>
<path d="M0 0 C4.29 0 8.58 0 13 0 C13 17.16 13 34.32 13 52 C8.71 52 4.42 52 0 52 C0 50.02 0 48.04 0 46 C-1.31328657 44.64691687 -2.64499081 43.31129922 -4 42 C-3.9375 39.9375 -3.9375 39.9375 -3 38 C-2.23755981 37.44348755 -2.23755981 37.44348755 -1.4597168 36.87573242 C0.84954882 33.9083319 0.36729788 30.65157449 0.29296875 27.05078125 C0.28872391 26.27816452 0.28447906 25.50554779 0.28010559 24.70951843 C0.26332183 22.24349008 0.22567147 19.77828104 0.1875 17.3125 C0.17245271 15.63998577 0.15876438 13.96745872 0.14648438 12.29492188 C0.11341946 8.19629922 0.06164028 4.09828849 0 0 Z " fill="#010101" transform="translate(358,140)"/>
<path d="M0 0 C-0.48578543 3.12290635 -0.9986012 5.99580359 -2 9 C-1.67 9.66 -1.34 10.32 -1 11 C-1.33 11.66 -1.66 12.32 -2 13 C-2.66 13 -3.32 13 -4 13 C-4 14.98 -4 16.96 -4 19 C-10.6 19 -17.2 19 -24 19 C-23.02745 14.13724999 -21.82739031 11.92186398 -19 8 C-21.94729537 6.84188612 -21.94729537 6.84188612 -25 7 C-25.99 7 -26.98 7 -28 7 C-27.34 5.35 -26.68 3.7 -26 2 C-25.34 2 -24.68 2 -24 2 C-23.8453125 1.0409375 -23.8453125 1.0409375 -23.6875 0.0625 C-23.460625 -0.618125 -23.23375 -1.29875 -23 -2 C-15.22350709 -4.5921643 -7.29035718 -3.36478024 0 0 Z " fill="#0B0B0B" transform="translate(458,141)"/>
<path d="M0 0 C3.4621318 0.69242636 5.97456554 1.27007135 9.125 2.56640625 C10.29434082 3.04207031 10.29434082 3.04207031 11.48730469 3.52734375 C12.73108887 4.03974609 12.73108887 4.03974609 14 4.5625 C21.5506509 7.63127407 29.12903543 10.61007894 36.75 13.5 C37.67296875 13.85006104 38.5959375 14.20012207 39.546875 14.56079102 C41.69739922 15.3752283 43.84861787 16.18783164 46 17 C46 20.96 46 24.92 46 29 C43.67305465 30.01803859 41.34226131 31.01818746 39 32 C37.94039063 32.44666016 37.94039063 32.44666016 36.859375 32.90234375 C31.34949622 35.11649874 31.34949622 35.11649874 28 34 C29.43429001 33.32645501 30.87257057 32.66140299 32.3125 32 C33.51326172 31.443125 33.51326172 31.443125 34.73828125 30.875 C37 30 37 30 40 30 C40.33 28.68 40.66 27.36 41 26 C39.68 25.34 38.36 24.68 37 24 C37 23.34 37 22.68 37 22 C39.31 21.67 41.62 21.34 44 21 C41.40814126 18.12987421 38.901183 17.09176346 35.24609375 15.82421875 C32.90369034 14.96465854 30.69195667 13.94249487 28.4375 12.875 C24.56910878 11.11541927 21.22377725 10.3594704 17 10 C16.67 10.66 16.34 11.32 16 12 C15.34 12 14.68 12 14 12 C14 11.01 14 10.02 14 9 C13.01 9 12.02 9 11 9 C11 11.31 11 13.62 11 16 C11.66 16.33 12.32 16.66 13 17 C8.51474352 16.343621 4.33085971 15.29925791 0 14 C0 9.38 0 4.76 0 0 Z " fill="#9807F3" transform="translate(275,73)"/>
<path d="M0 0 C6.72045875 2.19037174 13.36724003 4.55765661 20 7 C20 7.66 20 8.32 20 9 C12.1073007 12.41457204 4.1877815 15.36821309 -4 18 C-4 22.29 -4 26.58 -4 31 C-1.69 30.34 0.62 29.68 3 29 C2.34 30.32 1.68 31.64 1 33 C-1.31 33 -3.62 33 -6 33 C-6.08071788 30.20775927 -6.14035408 27.41783434 -6.1875 24.625 C-6.21263672 23.8309375 -6.23777344 23.036875 -6.26367188 22.21875 C-6.29004405 20.14413852 -6.15486462 18.06899135 -6 16 C-5.01 15.34 -4.02 14.68 -3 14 C-3 13.01 -3 12.02 -3 11 C-2.01 10.34 -1.02 9.68 0 9 C0.33218192 5.99740483 0.33218192 5.99740483 -1.5 4.3125 C-1.995 3.879375 -2.49 3.44625 -3 3 C-2.01 2.67 -1.02 2.34 0 2 C0 1.34 0 0.68 0 0 Z " fill="#F8F9F7" transform="translate(280,88)"/>
<path d="M0 0 C1.17046875 0.03609375 2.3409375 0.0721875 3.546875 0.109375 C4.43890625 0.15578125 5.3309375 0.2021875 6.25 0.25 C6.61601307 7.57026144 6.61601307 7.57026144 4.9375 10.6875 C2.14113084 13.27673071 -0.65951325 13.4277828 -4.3125 13.5 C-5.49005859 13.53867188 -5.49005859 13.53867188 -6.69140625 13.578125 C-7.37074219 13.46984375 -8.05007812 13.3615625 -8.75 13.25 C-11.07749345 9.75875983 -11.25299316 8.35777749 -10.75 4.25 C-7.598495 -0.03143484 -5.15869682 -0.20634787 0 0 Z " fill="#EEEEEE" transform="translate(29.75,169.75)"/>
<path d="M0 0 C3.60272894 0.86647911 5.12695372 2.50252104 7.16015625 5.51953125 C7.16015625 7.49953125 7.16015625 9.47953125 7.16015625 11.51953125 C0.56015625 11.51953125 -6.03984375 11.51953125 -12.83984375 11.51953125 C-11.2303729 3.47217701 -8.37253883 -0.60103367 0 0 Z " fill="#EDEDED" transform="translate(446.83984375,148.48046875)"/>
<path d="M0 0 C3.0625 1.5625 3.0625 1.5625 5 4 C5 6.31 5 8.62 5 11 C-1.27 11 -7.54 11 -14 11 C-13 4 -13 4 -11.5 1.5625 C-7.72814676 -0.79490827 -4.32536068 -0.74654802 0 0 Z " fill="#EEEEEE" transform="translate(201,149)"/>
<path d="M0 0 C2.5 1.5625 2.5 1.5625 4 4 C4 6.31 4 8.62 4 11 C-4.415 11.495 -4.415 11.495 -13 12 C-12.34 10.02 -11.68 8.04 -11 6 C-11 5.01 -11 4.02 -11 3 C-8.57539434 -1.09152206 -4.23481547 -0.74982648 0 0 Z " fill="#EFEFEF" transform="translate(32,149)"/>
<path d="M0 0 C6.66344741 1.2832316 12.49351683 3.25815661 18.6875 6 C23.74254764 8.20583897 28.72349732 10.3633465 34 12 C34 15.96 34 19.92 34 24 C31.67305465 25.01803859 29.34226131 26.01818746 27 27 C26.29359375 27.29777344 25.5871875 27.59554687 24.859375 27.90234375 C19.34949622 30.11649874 19.34949622 30.11649874 16 29 C17.43429001 28.32645501 18.87257057 27.66140299 20.3125 27 C21.11300781 26.62875 21.91351563 26.2575 22.73828125 25.875 C25 25 25 25 28 25 C28.33 23.68 28.66 22.36 29 21 C27.68 20.34 26.36 19.68 25 19 C25 18.34 25 17.68 25 17 C28.465 16.505 28.465 16.505 32 16 C29.4419127 13.18532644 27.0289496 12.13987477 23.4375 10.87890625 C15.46958408 8.00585964 7.71518949 4.48742151 0 1 C0 0.67 0 0.34 0 0 Z " fill="#8C1FD1" transform="translate(287,78)"/>
<path d="M0 0 C6.72045875 2.19037174 13.36724003 4.55765661 20 7 C20 7.66 20 8.32 20 9 C12.1073007 12.41457204 4.1877815 15.36821309 -4 18 C-4 22.29 -4 26.58 -4 31 C-1.69 30.34 0.62 29.68 3 29 C2.34 30.32 1.68 31.64 1 33 C-1.31 33 -3.62 33 -6 33 C-6 27.39 -6 21.78 -6 16 C-2.535 15.505 -2.535 15.505 1 15 C1 14.34 1 13.68 1 13 C3.70879335 11.64560332 6.00933268 11.93498549 9 12 C9 11.34 9 10.68 9 10 C10.98 9.67 12.96 9.34 15 9 C12.39473112 6.39473112 9.82060766 5.65865776 6.375 4.375 C5.18648438 3.92898437 3.99796875 3.48296875 2.7734375 3.0234375 C1.85820312 2.68570313 0.94296875 2.34796875 0 2 C0 1.34 0 0.68 0 0 Z " fill="#F7CCFD" transform="translate(280,88)"/>
<path d="M0 0 C0.66 0.33 1.32 0.66 2 1 C1.814375 1.7425 1.62875 2.485 1.4375 3.25 C1.00796892 5.94990963 1.14877026 7.44631077 2 10 C-1.63423209 12.32590854 -4.77088331 12.16265833 -9 12 C-9 8.7 -9 5.4 -9 2 C-8.21625 2.165 -7.4325 2.33 -6.625 2.5 C-4.11791961 3.0623707 -4.11791961 3.0623707 -2 3 C-1.34 2.01 -0.68 1.02 0 0 Z " fill="#980AE8" transform="translate(286,105)"/>
<path d="M0 0 C3.61541189 0.26293905 6.15296398 1.16380455 9.46875 2.515625 C12.07785721 3.4888634 14.68212982 3.90557873 17.4375 4.25 C17.4375 5.57 17.4375 6.89 17.4375 8.25 C13.26173832 7.56583566 9.55669593 6.23634991 5.625 4.6875 C4.46355469 4.23246094 3.30210937 3.77742188 2.10546875 3.30859375 C0.78482422 2.78458984 0.78482422 2.78458984 -0.5625 2.25 C-0.5625 6.54 -0.5625 10.83 -0.5625 15.25 C-1.2225 15.25 -1.8825 15.25 -2.5625 15.25 C-2.75640729 12.93802845 -2.94246367 10.6253971 -3.125 8.3125 C-3.28162109 6.38083984 -3.28162109 6.38083984 -3.44140625 4.41015625 C-3.48136719 3.36730469 -3.52132813 2.32445313 -3.5625 1.25 C-2.5625 0.25 -2.5625 0.25 0 0 Z " fill="#F9DDFC" transform="translate(275.5625,70.75)"/>
<path d="M0 0 C2.64 0 5.28 0 8 0 C7.67 0.99 7.34 1.98 7 3 C7.66 3 8.32 3 9 3 C12.2 9.15384615 12.2 9.15384615 11.1875 13.4375 C10.795625 14.283125 10.40375 15.12875 10 16 C6.37 16.33 2.74 16.66 -1 17 C1 15 1 15 5 14 C5.33 10.04 5.66 6.08 6 2 C3.03 1.505 3.03 1.505 0 1 C0 0.67 0 0.34 0 0 Z " fill="#FAE3FD" transform="translate(315,88)"/>
<path d="M0 0 C2.0625 0.4375 2.0625 0.4375 4 1 C0.26986234 4.38314811 -1.91935964 6.31342698 -7 7 C-7.99 7.66 -8.98 8.32 -10 9 C-13.1875 9.125 -13.1875 9.125 -16 9 C-16 9.66 -16 10.32 -16 11 C-19.3 11.33 -22.6 11.66 -26 12 C-22.72435977 9.54326983 -20.74342846 8.34835677 -17.05078125 6.9921875 C-16.12072266 6.64542969 -15.19066406 6.29867187 -14.23242188 5.94140625 C-13.26884766 5.58949219 -12.30527344 5.23757812 -11.3125 4.875 C-9.39107412 4.16637102 -7.47045391 3.45555229 -5.55078125 2.7421875 C-4.70169189 2.4313623 -3.85260254 2.12053711 -2.9777832 1.80029297 C-1.03295031 1.16303177 -1.03295031 1.16303177 0 0 Z " fill="#F1CAFB" transform="translate(310,105)"/>
<path d="M0 0 C4.34862851 0.8697257 7.16270693 1.9474944 11 4 C7.37673261 5.2077558 6.35853631 4.54311128 3 3 C2.67 5.97 2.34 8.94 2 12 C2.93972656 12.29003906 2.93972656 12.29003906 3.8984375 12.5859375 C4.71570313 12.84632812 5.53296875 13.10671875 6.375 13.375 C7.18710937 13.63023438 7.99921875 13.88546875 8.8359375 14.1484375 C11 15 11 15 13 17 C8.51474352 16.343621 4.33085971 15.29925791 0 14 C0 9.38 0 4.76 0 0 Z " fill="#8E30C5" transform="translate(275,73)"/>
<path d="M0 0 C0.33 2.97 0.66 5.94 1 9 C0.32453125 9.19335938 -0.3509375 9.38671875 -1.046875 9.5859375 C-1.93890625 9.84632812 -2.8309375 10.10671875 -3.75 10.375 C-4.63171875 10.63023438 -5.5134375 10.88546875 -6.421875 11.1484375 C-8.98807656 11.91118927 -8.98807656 11.91118927 -11.140625 13.1640625 C-13 14 -13 14 -16 13 C-14.56570999 12.32645501 -13.12742943 11.66140299 -11.6875 11 C-10.48673828 10.443125 -10.48673828 10.443125 -9.26171875 9.875 C-7 9 -7 9 -4 9 C-3.67 7.68 -3.34 6.36 -3 5 C-4.32 4.34 -5.64 3.68 -7 3 C-7 2.34 -7 1.68 -7 1 C-4 0 -4 0 0 0 Z " fill="#9413DD" transform="translate(319,94)"/>
<path d="M0 0 C2.64 0.33 5.28 0.66 8 1 C8.33 1.99 8.66 2.98 9 4 C8.67 4.66 8.34 5.32 8 6 C6.68 6 5.36 6 4 6 C4 6.66 4 7.32 4 8 C6.97 8.495 6.97 8.495 10 9 C9.67 9.99 9.34 10.98 9 12 C8.01 12 7.02 12 6 12 C6 11.34 6 10.68 6 10 C3.03 10 0.06 10 -3 10 C2.14285714 4.42857143 2.14285714 4.42857143 6 4 C6 3.34 6 2.68 6 2 C3.03 1.505 3.03 1.505 0 1 C0 0.67 0 0.34 0 0 Z " fill="#960CF0" transform="translate(294,93)"/>
<path d="M0 0 C2.475 0.495 2.475 0.495 5 1 C5 3.64 5 6.28 5 9 C3.35 9.33 1.7 9.66 0 10 C0 6.7 0 3.4 0 0 Z " fill="#A304F5" transform="translate(277,107)"/>
<path d="M0 0 C-2.64 0.99 -5.28 1.98 -8 3 C-8.33 6.3 -8.66 9.6 -9 13 C-7.68 13.33 -6.36 13.66 -5 14 C-6.98 14.66 -8.96 15.32 -11 16 C-11 11.38 -11 6.76 -11 2 C-4.5 -1.125 -4.5 -1.125 0 0 Z " fill="#8E2CC6" transform="translate(286,104)"/>
<path d="M0 0 C2.31 0 4.62 0 7 0 C6.67 0.99 6.34 1.98 6 3 C3.34765625 3.94921875 3.34765625 3.94921875 0.0625 4.6875 C-1.01902344 4.93886719 -2.10054688 5.19023438 -3.21484375 5.44921875 C-6 6 -6 6 -8 6 C-7.34 4.68 -6.68 3.36 -6 2 C-4.02 2 -2.04 2 0 2 C0 1.34 0 0.68 0 0 Z " fill="#F8FCEF" transform="translate(294,114)"/>
<path d="M0 0 C2.31 0 4.62 0 7 0 C7.33 0.99 7.66 1.98 8 3 C6.88625 3.474375 5.7725 3.94875 4.625 4.4375 C2.73289006 5.25306463 0.84287291 6.07856355 -1 7 C-3.125 6.0625 -3.125 6.0625 -5 5 C-5 4.34 -5 3.68 -5 3 C-3.35 3 -1.7 3 0 3 C0 2.01 0 1.02 0 0 Z " fill="#9715DA" transform="translate(293,86)"/>
<path d="M0 0 C1.63001953 0.01353516 1.63001953 0.01353516 3.29296875 0.02734375 C4.12441406 0.03894531 4.95585937 0.05054688 5.8125 0.0625 C5.8125 0.3925 5.8125 0.7225 5.8125 1.0625 C5.14863281 1.11148438 4.48476562 1.16046875 3.80078125 1.2109375 C-2.96427584 1.64303913 -2.96427584 1.64303913 -9.1875 4.0625 C-10.32100534 6.07919827 -10.32100534 6.07919827 -11.1875 8.0625 C-12.1775 8.3925 -13.1675 8.7225 -14.1875 9.0625 C-14.5175 7.7425 -14.8475 6.4225 -15.1875 5.0625 C-9.78212877 1.33879982 -6.55171114 -0.07044851 0 0 Z " fill="#2F2F2F" transform="translate(140.1875,137.9375)"/>
<path d="M0 0 C5.0302076 0.52537724 10.01885239 1.10594786 15 2 C15 3.32 15 4.64 15 6 C11.33827525 5.37321829 8.1181005 4.35548154 4.6875 2.9375 C3.36298828 2.39416016 3.36298828 2.39416016 2.01171875 1.83984375 C1.34785156 1.56269531 0.68398438 1.28554687 0 1 C0 0.67 0 0.34 0 0 Z " fill="#F3CEFC" transform="translate(278,73)"/>
<path d="M0 0 C5.445 1.485 5.445 1.485 11 3 C11 6.96 11 10.92 11 15 C9 12 9 12 8.875 8.5625 C8.40316046 4.99184497 8.40316046 4.99184497 6.16015625 3.65625 C4.13379615 2.65909565 2.11966679 1.7773721 0 1 C0 0.67 0 0.34 0 0 Z " fill="#8F2FC4" transform="translate(310,87)"/>
<path d="M0 0 C0.66 0.33 1.32 0.66 2 1 C2 1.66 2 2.32 2 3 C2.66 3 3.32 3 4 3 C4.625 4.875 4.625 4.875 5 7 C4.34 7.66 3.68 8.32 3 9 C1.68 9 0.36 9 -1 9 C-0.67 6.03 -0.34 3.06 0 0 Z " fill="#A601F7" transform="translate(278,76)"/>
<path d="M0 0 C3.63 0.33 7.26 0.66 11 1 C11.33 2.32 11.66 3.64 12 5 C7.25081338 4.53439347 3.89217595 3.83067342 0 1 C0 0.67 0 0.34 0 0 Z " fill="#FAFEED" transform="translate(272,67)"/>
<path d="M0 0 C-1.45537568 0.83848804 -2.91440373 1.67063934 -4.375 2.5 C-5.59316406 3.19609375 -5.59316406 3.19609375 -6.8359375 3.90625 C-9 5 -9 5 -11 5 C-11.33 3.68 -11.66 2.36 -12 1 C-3.96428571 -1.27678571 -3.96428571 -1.27678571 0 0 Z " fill="#EEF0E5" transform="translate(305,123)"/>
<path d="M0 0 C0.33 0 0.66 0 1 0 C2.25 6.625 2.25 6.625 0 10 C-2.63965207 11.61785127 -3.84012675 12 -7 12 C-6.57847656 11.38511719 -6.15695312 10.77023438 -5.72265625 10.13671875 C-4.90087891 8.92435547 -4.90087891 8.92435547 -4.0625 7.6875 C-3.51722656 6.88699219 -2.97195313 6.08648437 -2.41015625 5.26171875 C-0.86162674 2.9741857 -0.86162674 2.9741857 0 0 Z " fill="#D4D4D4" transform="translate(469,176)"/>
<path d="M0 0 C4.455 1.98 4.455 1.98 9 4 C5.37673261 5.2077558 4.35853631 4.54311128 1 3 C0.67 5.97 0.34 8.94 0 12 C-0.33 12 -0.66 12 -1 12 C-1.02698189 10.37509046 -1.04638757 8.75005367 -1.0625 7.125 C-1.07410156 6.22007813 -1.08570313 5.31515625 -1.09765625 4.3828125 C-1 2 -1 2 0 0 Z " fill="#8C18D0" transform="translate(277,73)"/>
<path d="M0 0 C4.86896303 0.59619955 9.32790951 1.56976822 14 3 C14 3.99 14 4.98 14 6 C9.27934033 4.45730076 4.58335908 2.92205381 0 1 C0 0.67 0 0.34 0 0 Z " fill="#ECC2FA" transform="translate(300,82)"/>
<path d="M0 0 C0.99 0 1.98 0 3 0 C3.103125 0.639375 3.20625 1.27875 3.3125 1.9375 C3.539375 2.618125 3.76625 3.29875 4 4 C4.99 4.33 5.98 4.66 7 5 C4.53721199 6.231394 2.7204945 6.07159196 0 6 C0 5.34 0 4.68 0 4 C-1.32 4 -2.64 4 -4 4 C-3 2 -3 2 0 1 C0 0.67 0 0.34 0 0 Z " fill="#A707F0" transform="translate(297,103)"/>
<path d="M0 0 C0.66 0.66 1.32 1.32 2 2 C1.7578125 4.6015625 1.7578125 4.6015625 1.125 7.625 C0.81949219 9.12933594 0.81949219 9.12933594 0.5078125 10.6640625 C0.34023437 11.43492187 0.17265625 12.20578125 0 13 C-0.33 13 -0.66 13 -1 13 C-1.02696365 11.20841511 -1.04637917 9.41671527 -1.0625 7.625 C-1.07410156 6.62726563 -1.08570313 5.62953125 -1.09765625 4.6015625 C-1 2 -1 2 0 0 Z " fill="#353535" transform="translate(5,170)"/>
<path d="M0 0 C0.66 0.33 1.32 0.66 2 1 C2 1.99 2 2.98 2 4 C1.195625 4.12375 0.39125 4.2475 -0.4375 4.375 C-1.7059375 4.684375 -1.7059375 4.684375 -3 5 C-3.33 5.66 -3.66 6.32 -4 7 C-4.99 7 -5.98 7 -7 7 C-4.66666667 4.66666667 -2.33333333 2.33333333 0 0 Z " fill="#272727" transform="translate(71,141)"/>
<path d="M0 0 C1.5778125 0.1546875 1.5778125 0.1546875 3.1875 0.3125 C3.1875 0.6425 3.1875 0.9725 3.1875 1.3125 C2.115 1.539375 1.0425 1.76625 -0.0625 2 C-4.18468701 3.44276545 -5.45664523 4.73160075 -7.8125 8.3125 C-8.1425 7.3225 -8.4725 6.3325 -8.8125 5.3125 C-5.88314862 1.76177106 -4.6956049 0.38488565 0 0 Z " fill="#C3C3C3" transform="translate(254.8125,149.6875)"/>
<path d="M0 0 C3.3 0 6.6 0 10 0 C10 0.66 10 1.32 10 2 C10.66 2.33 11.32 2.66 12 3 C11.01 3.495 11.01 3.495 10 4 C9.34 3.67 8.68 3.34 8 3 C6.45976004 2.93049459 4.91665012 2.91547643 3.375 2.9375 C2.55773437 2.94652344 1.74046875 2.95554688 0.8984375 2.96484375 C0.27195313 2.97644531 -0.35453125 2.98804688 -1 3 C-0.67 2.01 -0.34 1.02 0 0 Z " fill="#1C1C1C" transform="translate(137,148)"/>
<path d="M0 0 C0.33 0.66 0.66 1.32 1 2 C3.01669827 3.13350534 3.01669827 3.13350534 5 4 C4.67 4.66 4.34 5.32 4 6 C3.01 6 2.02 6 1 6 C-1.1875 3.5 -1.1875 3.5 -3 1 C-2.01 0.67 -1.02 0.34 0 0 Z " fill="#121212" transform="translate(452,148)"/>
<path d="M0 0 C-0.66 1.32 -1.32 2.64 -2 4 C-4.31 4 -6.62 4 -9 4 C-8 2 -8 2 -5.0625 0.875 C-2 0 -2 0 0 0 Z " fill="#EECAFB" transform="translate(283,117)"/>
<path d="M0 0 C3.16115776 1.36983503 3.9927092 1.9890638 6 5 C5.01 5.33 4.02 5.66 3 6 C1.68 4.68 0.36 3.36 -1 2 C-0.67 1.34 -0.34 0.68 0 0 Z " fill="#ECECEC" transform="translate(97,137)"/>
<path d="M0 0 C-0.33 1.32 -0.66 2.64 -1 4 C-3.97 3.505 -3.97 3.505 -7 3 C-3.375 0 -3.375 0 0 0 Z " fill="#191A1D" transform="translate(305,124)"/>
<path d="M0 0 C1.32 0 2.64 0 4 0 C3.67 1.32 3.34 2.64 3 4 C1.35 3.67 -0.3 3.34 -2 3 C-1.34 2.01 -0.68 1.02 0 0 Z " fill="#F9FDEC" transform="translate(278,98)"/>
<path d="M0 0 C1.65 0 3.3 0 5 0 C5.33 0.99 5.66 1.98 6 3 C4.35 3.33 2.7 3.66 1 4 C0.67 2.68 0.34 1.36 0 0 Z " fill="#940AE9" transform="translate(303,90)"/>
<path d="M0 0 C2.31 0 4.62 0 7 0 C7.33 0.99 7.66 1.98 8 3 C5.69 3 3.38 3 1 3 C0.67 2.01 0.34 1.02 0 0 Z " fill="#9607E8" transform="translate(293,86)"/>
<path d="M0 0 C0.33 1.32 0.66 2.64 1 4 C-0.9375 6.25 -0.9375 6.25 -3 8 C-3.66 7.67 -4.32 7.34 -5 7 C-3.35 4.69 -1.7 2.38 0 0 Z " fill="#212121" transform="translate(123,144)"/>
<path d="M0 0 C2.64 0.33 5.28 0.66 8 1 C8.33 1.99 8.66 2.98 9 4 C7.35 4.33 5.7 4.66 4 5 C4.66 4.67 5.32 4.34 6 4 C6 3.34 6 2.68 6 2 C3.03 1.505 3.03 1.505 0 1 C0 0.67 0 0.34 0 0 Z " fill="#A73CE3" transform="translate(294,93)"/>
<path d="M0 0 C0.33 1.32 0.66 2.64 1 4 C-1.70879335 5.35439668 -4.00933268 5.06501451 -7 5 C-6.01 4.34 -5.02 3.68 -4 3 C-2.66209359 2.00612666 -1.32781878 1.0073108 0 0 Z " fill="#E4E4E4" transform="translate(35,188)"/>
</svg>
